REM DIRINDEX 1\2,1\3,1\4,1\5
REM DIRNAME cjc004,folder01,folder02,folder03,folder04
TITLE ""
FILE "1Q_t_2031-2040.mp3" MP3
  TRACK 01 AUDIO
    TITLE "3:cjc004_7001"
    INDEX 01 00:00:00
  TRACK 02 AUDIO
    TITLE "0:"
    INDEX 01 00:01:01
  TRACK 03 AUDIO
    TITLE "4:cjc004_7002"
    INDEX 01 00:01:32
  TRACK 04 AUDIO
    TITLE "0:"
    INDEX 01 00:02:51
  TRACK 05 AUDIO
    TITLE "5:cjc004_7003"
    INDEX 01 00:03:02
  TRACK 06 AUDIO
    TITLE "0:"
    INDEX 01 00:07:49
  TRACK 07 AUDIO
    TITLE "3:cjc004_7004"
    INDEX 01 00:08:28
  TRACK 08 AUDIO
    TITLE "0:"
    INDEX 01 00:09:38
  TRACK 09 AUDIO
    TITLE "4:cjc004_7005"
    INDEX 01 00:09:63
  TRACK 10 AUDIO
    TITLE "0:"
    INDEX 01 00:10:61
  TRACK 11 AUDIO
    TITLE "5:cjc004_7006"
    INDEX 01 00:11:07
  TRACK 12 AUDIO
    TITLE "0:"
    INDEX 01 00:15:19
  TRACK 13 AUDIO
    TITLE "3:cjc004_7007"
    INDEX 01 00:15:74
  TRACK 14 AUDIO
    TITLE "0:"
    INDEX 01 00:17:08
  TRACK 15 AUDIO
    TITLE "4:cjc004_7008"
    INDEX 01 00:17:39
  TRACK 16 AUDIO
    TITLE "0:"
    INDEX 01 00:19:11
  TRACK 17 AUDIO
    TITLE "5:cjc004_7009"
    INDEX 01 00:19:34
  TRACK 18 AUDIO
    TITLE "0:"
    INDEX 01 00:23:18
  TRACK 19 AUDIO
    TITLE "3:cjc004_7010"
    INDEX 01 00:23:71
  TRACK 20 AUDIO
    TITLE "0:"
    INDEX 01 00:25:03
  TRACK 21 AUDIO
    TITLE "4:cjc004_7011"
    INDEX 01 00:25:31
  TRACK 22 AUDIO
    TITLE "0:"
    INDEX 01 00:26:66
  TRACK 23 AUDIO
    TITLE "5:cjc004_7012"
    INDEX 01 00:27:14
  TRACK 24 AUDIO
    TITLE "0:"
    INDEX 01 00:32:07
  TRACK 25 AUDIO
    TITLE "3:cjc004_7013"
    INDEX 01 00:32:58
  TRACK 26 AUDIO
    TITLE "0:"
    INDEX 01 00:34:00
  TRACK 27 AUDIO
    TITLE "4:cjc004_7014"
    INDEX 01 00:34:28
  TRACK 28 AUDIO
    TITLE "0:"
    INDEX 01 00:35:70
  TRACK 29 AUDIO
    TITLE "5:cjc004_7015"
    INDEX 01 00:36:21
  TRACK 30 AUDIO
    TITLE "0:"
    INDEX 01 00:40:56
  TRACK 31 AUDIO
    TITLE "3:cjc004_7016"
    INDEX 01 00:41:30
  TRACK 32 AUDIO
    TITLE "0:"
    INDEX 01 00:42:47
  TRACK 33 AUDIO
    TITLE "4:cjc004_7017"
    INDEX 01 00:42:72
  TRACK 34 AUDIO
    TITLE "0:"
    INDEX 01 00:44:32
  TRACK 35 AUDIO
    TITLE "5:cjc004_7018"
    INDEX 01 00:44:58
  TRACK 36 AUDIO
    TITLE "0:"
    INDEX 01 00:49:33
  TRACK 37 AUDIO
    TITLE "3:cjc004_7019"
    INDEX 01 00:50:05
  TRACK 38 AUDIO
    TITLE "0:"
    INDEX 01 00:51:32
  TRACK 39 AUDIO
    TITLE "4:cjc004_7020"
    INDEX 01 00:51:60
  TRACK 40 AUDIO
    TITLE "0:"
    INDEX 01 00:53:11
  TRACK 41 AUDIO
    TITLE "5:cjc004_7021"
    INDEX 01 00:53:37
  TRACK 42 AUDIO
    TITLE "0:"
    INDEX 01 00:58:05
  TRACK 43 AUDIO
    TITLE "3:cjc004_7022"
    INDEX 01 00:58:58
  TRACK 44 AUDIO
    TITLE "0:"
    INDEX 01 00:59:71
  TRACK 45 AUDIO
    TITLE "4:cjc004_7023"
    INDEX 01 01:00:25
  TRACK 46 AUDIO
    TITLE "0:"
    INDEX 01 01:01:62
  TRACK 47 AUDIO
    TITLE "5:cjc004_7024"
    INDEX 01 01:02:08
  TRACK 48 AUDIO
    TITLE "0:"
    INDEX 01 01:06:38
  TRACK 49 AUDIO
    TITLE "3:cjc004_7025"
    INDEX 01 01:07:15
  TRACK 50 AUDIO
    TITLE "0:"
    INDEX 01 01:08:50
  TRACK 51 AUDIO
    TITLE "4:cjc004_7026"
    INDEX 01 01:09:07
  TRACK 52 AUDIO
    TITLE "0:"
    INDEX 01 01:10:20
  TRACK 53 AUDIO
    TITLE "5:cjc004_7027"
    INDEX 01 01:10:47
  TRACK 54 AUDIO
    TITLE "0:"
    INDEX 01 01:15:29
  TRACK 55 AUDIO
    TITLE "3:cjc004_7028"
    INDEX 01 01:16:03
  TRACK 56 AUDIO
    TITLE "0:"
    INDEX 01 01:17:10
  TRACK 57 AUDIO
    TITLE "4:cjc004_7029"
    INDEX 01 01:17:39
  TRACK 58 AUDIO
    TITLE "0:"
    INDEX 01 01:18:54
  TRACK 59 AUDIO
    TITLE "5:cjc004_7030"
    INDEX 01 01:19:05
  TRACK 60 AUDIO
    TITLE "0:"
    INDEX 01 01:23:05
